<svg width="21" height="21" viewBox="0 0 21 21" fill="none" xmlns="http://www.w3.org/2000/svg">
<path fill-rule="evenodd" clip-rule="evenodd" d="M13.125 1.09375H9.57565C7.9676 1.09373 6.69392 1.09372 5.69711 1.22775C4.67124 1.36567 3.84091 1.65627 3.18609 2.31109C2.53127 2.96591 2.24067 3.79624 2.10275 4.82211C1.96872 5.81892 1.96873 7.09259 1.96875 8.70062V14C1.96875 15.6382 3.16929 16.996 4.73857 17.2416C4.8593 17.9101 5.09034 18.4807 5.55481 18.9452C6.08149 19.4719 6.74462 19.6984 7.53222 19.8043C8.29082 19.9062 9.25531 19.9062 10.452 19.9062H13.173C14.3697 19.9062 15.3342 19.9062 16.0928 19.8043C16.8804 19.6984 17.5435 19.4719 18.0702 18.9452C18.5969 18.4185 18.8234 17.7554 18.9293 16.9678C19.0312 16.2092 19.0312 15.2447 19.0312 14.048V9.57696C19.0312 8.38035 19.0312 7.41582 18.9293 6.65722C18.8234 5.86962 18.5969 5.20649 18.0702 4.67981C17.6057 4.21534 17.0351 3.9843 16.3666 3.86357C16.121 2.29429 14.7632 1.09375 13.125 1.09375ZM14.9881 3.73727C14.7232 2.96295 13.9892 2.40625 13.125 2.40625H9.625C7.95653 2.40625 6.7712 2.40764 5.87199 2.52854C4.99167 2.64689 4.48447 2.86885 4.11416 3.23916C3.74385 3.60947 3.52189 4.11667 3.40354 4.99699C3.28264 5.8962 3.28125 7.08153 3.28125 8.75V14C3.28125 14.8642 3.83796 15.5982 4.61227 15.8631C4.59373 15.3295 4.59374 14.726 4.59375 14.048V9.57696C4.59373 8.38035 4.59372 7.41582 4.69571 6.65722C4.8016 5.86962 5.02813 5.20649 5.55481 4.67981C6.08149 4.15313 6.74462 3.9266 7.53222 3.82071C8.29082 3.71872 9.25531 3.71873 10.452 3.71875H13.173C13.851 3.71874 14.4545 3.71873 14.9881 3.73727ZM6.48288 5.60788C6.72505 5.36572 7.06506 5.20783 7.70711 5.12151C8.36804 5.03264 9.24403 5.03125 10.5 5.03125H13.125C14.381 5.03125 15.2569 5.03264 15.9179 5.12151C16.56 5.20783 16.8999 5.36572 17.1421 5.60788C17.3843 5.85005 17.5422 6.19006 17.6285 6.83211C17.7174 7.49304 17.7188 8.36901 17.7188 9.625V14C17.7188 15.256 17.7174 16.1319 17.6285 16.7929C17.5422 17.435 17.3843 17.7749 17.1421 18.0171C16.8999 18.2593 16.56 18.4172 15.9179 18.5035C15.2569 18.5924 14.381 18.5938 13.125 18.5938H10.5C9.24403 18.5938 8.36804 18.5924 7.70711 18.5035C7.06506 18.4172 6.72505 18.2593 6.48288 18.0171C6.24072 17.7749 6.08283 17.435 5.99651 16.7929C5.90764 16.1319 5.90625 15.256 5.90625 14V9.625C5.90625 8.36901 5.90764 7.49304 5.99651 6.83211C6.08283 6.19006 6.24072 5.85005 6.48288 5.60788Z" fill="white"/>
</svg>
