<svg width="15" height="15" viewBox="0 0 15 15" fill="none" xmlns="http://www.w3.org/2000/svg">
<path fill-rule="evenodd" clip-rule="evenodd" d="M11.0319 0.600545C10.0995 -0.331858 8.54202 -0.154152 7.84362 0.964323L5.8995 4.07784C5.8995 4.07784 5.89848 4.07955 5.89484 4.08216C5.89038 4.08535 5.88087 4.09086 5.86491 4.09536C5.83005 4.10517 5.78451 4.10441 5.74383 4.08934C5.08029 3.84335 3.94129 3.57312 2.75853 4.01863C2.1213 4.25865 1.80332 4.81106 1.76867 5.37152C1.73561 5.90627 1.95158 6.45597 2.3488 6.85318L4.76462 9.269L0.200135 13.8335C-0.0667116 14.1004 -0.0667116 14.533 0.200135 14.7999C0.466979 15.0667 0.899626 15.0667 1.16647 14.7999L5.73096 10.2353L8.1468 12.6512C8.544 13.0484 9.09372 13.2644 9.62848 13.2314C10.1889 13.1967 10.7414 12.8787 10.9813 12.2415C11.4269 11.0587 11.1566 9.91971 10.9107 9.25616C10.8956 9.2155 10.8948 9.16999 10.9046 9.13507C10.9091 9.11915 10.9147 9.10965 10.9179 9.10514C10.9205 9.10152 10.9221 9.10057 10.9221 9.10057L14.0356 7.15636C15.1541 6.45795 15.3319 4.90047 14.3994 3.96808L11.0319 0.600545ZM9.00284 1.68815C9.23564 1.31532 9.75482 1.25609 10.0656 1.56689L13.4331 4.93441C13.7439 5.24522 13.6847 5.76438 13.3118 5.99717L10.1984 7.94134C9.55283 8.34442 9.40913 9.1374 9.6293 9.73119C9.82458 10.258 9.98038 11.022 9.70248 11.7598C9.68348 11.8101 9.66237 11.8283 9.64938 11.8373C9.63285 11.8487 9.60026 11.8639 9.54416 11.8673C9.42287 11.8749 9.24965 11.8214 9.11313 11.6849L3.31513 5.88685C3.17865 5.75036 3.12517 5.57712 3.13268 5.45584C3.13614 5.39972 3.15135 5.36716 3.16277 5.35059C3.1717 5.33764 3.18988 5.31649 3.24024 5.29752C3.97809 5.0196 4.74197 5.17542 5.26881 5.37073C5.86264 5.59087 6.65556 5.44719 7.05871 4.80165L9.00284 1.68815Z" fill="white"/>
</svg>
