<svg width="17" height="17" viewBox="0 0 17 17" fill="none" xmlns="http://www.w3.org/2000/svg">
<path d="M0.625 5.875V14.975C0.625 15.4651 0.625 15.7099 0.720366 15.8971C0.804261 16.0618 0.938023 16.1958 1.10266 16.2797C1.28965 16.375 1.53456 16.375 2.02365 16.375H11.1251M12.875 5L9.375 8.5L7.625 6.75M4.125 10.0752V3.42518C4.125 2.44508 4.125 1.95467 4.31574 1.58033C4.48351 1.25104 4.75104 0.983514 5.08032 0.815741C5.45467 0.625 5.94508 0.625 6.92517 0.625H13.5752C14.5553 0.625 15.0451 0.625 15.4194 0.815741C15.7487 0.983514 16.0167 1.25104 16.1844 1.58033C16.3752 1.95467 16.3752 2.44473 16.3752 3.42481V10.0748C16.3752 11.0549 16.3752 11.545 16.1844 11.9193C16.0167 12.2486 15.7487 12.5167 15.4194 12.6844C15.0454 12.875 14.5563 12.875 13.5781 12.875H6.92229C5.94412 12.875 5.4543 12.875 5.08032 12.6844C4.75104 12.5167 4.48351 12.2487 4.31574 11.9194C4.125 11.5451 4.125 11.0553 4.125 10.0752Z" stroke="white" stroke-linecap="round" stroke-linejoin="round"/>
</svg>
